<svg xmlns="http://www.w3.org/2000/svg" viewBox="0 0 420 120" width="420" height="120" fill="none">
  <!-- Wave/Drift icon -->
  <g transform="translate(10, 18)">
    <!-- Top wave line -->
    <path
      d="M 8 38 C 18 18, 36 14, 50 28 C 62 40, 58 52, 46 48 C 36 44, 34 34, 44 30 C 54 26, 70 36, 80 30 C 90 24, 100 20, 115 28"
      stroke="#0015ff"
      stroke-width="5.5"
      stroke-linecap="round"
      stroke-linejoin="round"
    />
    <!-- Bottom wave line -->
    <path
      d="M 2 58 C 14 42, 30 38, 44 50 C 56 60, 54 72, 42 68 C 32 64, 28 54, 38 50 C 48 46, 64 56, 76 50 C 88 44, 100 42, 118 52"
      stroke="#0015ff"
      stroke-width="5.5"
      stroke-linecap="round"
      stroke-linejoin="round"
    />
  </g>
  <!-- DINDRIFT text -->
  <text
    x="150"
    y="78"
    font-family="'Inter', 'Arial Black', Arial, sans-serif"
    font-size="52"
    font-weight="800"
    letter-spacing="2"
    fill="#0015ff"
  >DINDRIFT</text>
</svg>
