<svg xmlns="http://www.w3.org/2000/svg" viewBox="0 0 380 80" width="380" height="80" fill="none">
  <!-- Logo mark -->
  <g>
    <!-- Top stroke: sweeps right, curls into a loop, then waves right -->
    <path
      d="M 8 28 C 18 8, 38 4, 54 18 C 66 30, 62 46, 48 42 C 36 38, 34 26, 44 20 C 56 13, 74 26, 86 20 C 98 14, 110 10, 124 18"
      stroke="#0015ff"
      stroke-width="6"
      stroke-linecap="round"
      stroke-linejoin="round"
    />
    <!-- Bottom stroke: same shape, offset below -->
    <path
      d="M 2 50 C 14 32, 32 28, 48 42 C 60 52, 58 68, 44 64 C 32 60, 28 48, 38 42 C 50 35, 68 48, 82 42 C 96 36, 108 34, 124 42"
      stroke="#0015ff"
      stroke-width="6"
      stroke-linecap="round"
      stroke-linejoin="round"
    />
  </g>
  <!-- DINDRIFT text -->
  <text
    x="148"
    y="52"
    font-family="'Inter', 'Arial Black', Arial, sans-serif"
    font-size="38"
    font-weight="800"
    letter-spacing="1"
    fill="#0015ff"
  >DINDRIFT</text>
</svg>
